<?xml version="1.0" encoding="UTF-8"?>
<!DOCTYPE svg PUBLIC "-//W3C//DTD SVG 1.1//EN" "http://www.w3.org/Graphics/SVG/1.1/DTD/svg11.dtd">
<svg xmlns="http://www.w3.org/2000/svg" version="1.1" width="500px" height="500px" style="shape-rendering:geometricPrecision; text-rendering:geometricPrecision; image-rendering:optimizeQuality; fill-rule:evenodd; clip-rule:evenodd" xmlns:xlink="http://www.w3.org/1999/xlink">
<g><path style="opacity:0.997" fill="#002e35" d="M 428.5,352.5 C 409.132,338.513 388.132,335.679 365.5,344C 333.626,360.912 321.792,387.079 330,422.5C 331.907,427.313 334.074,431.98 336.5,436.5C 264.465,465.774 196.798,457.941 133.5,413C 75.0534,364.569 49.8867,302.403 58,226.5C 71.5124,149.609 114.346,96.4423 186.5,67C 257.462,43.7711 322.462,54.7711 381.5,100C 438.459,150.524 461.626,213.691 451,289.5C 446.769,311.695 439.269,332.695 428.5,352.5 Z"/></g>
<g><path style="opacity:1" fill="#5ec1d3" d="M 234.5,155.5 C 258.126,154.327 281.126,157.494 303.5,165C 332.028,176.552 357.695,192.552 380.5,213C 394.23,226.061 407.23,239.728 419.5,254C 390.082,297.422 350.748,328.089 301.5,346C 258.139,358.08 216.806,353.08 177.5,331C 143.142,310.78 113.476,284.947 88.5,253.5C 115.094,215.402 149.428,186.569 191.5,167C 205.485,161.443 219.819,157.61 234.5,155.5 Z"/></g>
<g><path style="opacity:1" fill="#fdfefe" d="M 241.5,166.5 C 284.5,163.734 315.667,181.401 335,219.5C 347.587,253.978 342.254,285.311 319,313.5C 290.451,341.562 257.285,348.729 219.5,335C 190.869,321.694 173.369,299.528 167,268.5C 162.763,229.482 176.93,199.316 209.5,178C 219.787,172.631 230.453,168.797 241.5,166.5 Z"/></g>
<g><path style="opacity:1" fill="#033037" d="M 246.5,200.5 C 258.585,199.617 269.918,202.117 280.5,208C 270.465,218.727 271.465,228.394 283.5,237C 290.411,238.49 296.744,237.323 302.5,233.5C 308.97,247.005 309.137,260.672 303,274.5C 290.334,299.963 269.834,310.463 241.5,306C 218.01,299.178 204.51,283.678 201,259.5C 200.195,232.302 212.362,213.468 237.5,203C 240.678,202.34 243.678,201.507 246.5,200.5 Z"/></g>
<g><path style="opacity:1" fill="#e7af22" d="M 230.5,221.5 C 241.49,219.992 246.324,224.658 245,235.5C 240.672,242.696 234.838,244.196 227.5,240C 222.795,232.814 223.795,226.647 230.5,221.5 Z"/></g>
<g><path style="opacity:1" fill="#052f34" d="M 231.5,224.5 C 239.161,223.663 242.661,226.996 242,234.5C 237.777,240.552 233.111,240.885 228,235.5C 226.663,230.872 227.83,227.205 231.5,224.5 Z"/></g>
<g><path style="opacity:1" fill="#12b5db" d="M 261.5,236.5 C 257.969,233.791 257.636,230.624 260.5,227C 265.84,226.011 268.34,228.178 268,233.5C 266.491,235.919 264.325,236.919 261.5,236.5 Z"/></g>
<g><path style="opacity:1" fill="#01404b" d="M 261.5,229.5 C 264.166,229.066 265.333,230.066 265,232.5C 262.342,233.694 261.176,232.694 261.5,229.5 Z"/></g>
<g><path style="opacity:1" fill="#cfd8d9" d="M 261.5,236.5 C 261.536,239.821 260.869,242.988 259.5,246C 260.813,249.369 261.646,252.869 262,256.5C 264.127,258.114 265.627,260.114 266.5,262.5C 263.937,261.8 261.437,260.8 259,259.5C 256.865,260.127 254.698,260.627 252.5,261C 248.327,266.668 243.993,272.168 239.5,277.5C 238.432,275.813 238.599,274.146 240,272.5C 243.743,268.012 247.243,263.346 250.5,258.5C 250,257.119 249,256.453 247.5,256.5C 244.551,257.302 241.551,257.636 238.5,257.5C 238.5,256.833 238.5,256.167 238.5,255.5C 241.728,254.454 245.061,253.788 248.5,253.5C 248.33,252.178 248.663,251.011 249.5,250C 247.306,247.305 245.306,244.472 243.5,241.5C 244.365,240.417 245.365,240.251 246.5,241C 248.494,245.921 251.827,247.754 256.5,246.5C 257.022,243.432 257.855,240.432 259,237.5C 259.671,236.748 260.504,236.414 261.5,236.5 Z"/></g>
<g><path style="opacity:1" fill="#123a40" d="M 253.5,249.5 C 256.352,249.352 258.019,250.686 258.5,253.5C 256.167,258.833 253.833,258.833 251.5,253.5C 251.752,251.927 252.418,250.594 253.5,249.5 Z"/></g>
<g><path style="opacity:1" fill="#16b0d5" d="M 238.5,255.5 C 238.5,256.167 238.5,256.833 238.5,257.5C 237.072,260.091 234.905,261.758 232,262.5C 227.794,261.472 226.461,258.805 228,254.5C 229.313,253.427 230.813,252.76 232.5,252.5C 234.511,253.519 236.511,254.519 238.5,255.5 Z"/></g>
<g><path style="opacity:1" fill="#003a44" d="M 230.5,256.5 C 231.978,256.238 233.311,256.571 234.5,257.5C 233.68,259.111 232.346,259.778 230.5,259.5C 230.5,258.5 230.5,257.5 230.5,256.5 Z"/></g>
<g><path style="opacity:1" fill="#e3ad23" d="M 266.5,262.5 C 277.831,257.322 282.998,260.989 282,273.5C 277.951,278.977 273.118,279.81 267.5,276C 263.919,271.757 263.585,267.257 266.5,262.5 Z"/></g>
<g><path style="opacity:1" fill="#113334" d="M 271.5,262.5 C 278.314,262.49 280.814,265.823 279,272.5C 273.194,277.252 269.361,275.918 267.5,268.5C 268.432,266.235 269.765,264.235 271.5,262.5 Z"/></g>
<g><path style="opacity:1" fill="#11b3d8" d="M 233.5,276.5 C 239.572,277.712 240.905,280.878 237.5,286C 232.647,287.13 230.147,285.296 230,280.5C 230.69,278.65 231.856,277.316 233.5,276.5 Z"/></g>
<g><path style="opacity:1" fill="#002e36" d="M 233.5,280.5 C 234.5,280.5 235.5,280.5 236.5,280.5C 236.5,281.5 236.5,282.5 236.5,283.5C 235.5,283.5 234.5,283.5 233.5,283.5C 233.5,282.5 233.5,281.5 233.5,280.5 Z"/></g>
<g><path style="opacity:0.989" fill="#6ce579" d="M 428.5,352.5 C 449.212,370.135 456.712,392.468 451,419.5C 443.786,444.861 427.286,460.361 401.5,466C 373.459,469.638 351.793,459.805 336.5,436.5C 334.074,431.98 331.907,427.313 330,422.5C 321.792,387.079 333.626,360.912 365.5,344C 388.132,335.679 409.132,338.513 428.5,352.5 Z"/></g>
<g><path style="opacity:1" fill="#fbfcfb" d="M 416.5,372.5 C 419.797,375.296 422.964,378.296 426,381.5C 426.667,382.5 426.667,383.5 426,384.5C 410.833,399.667 395.667,414.833 380.5,430C 379.5,430.667 378.5,430.667 377.5,430C 370.333,422.833 363.167,415.667 356,408.5C 355.333,407.5 355.333,406.5 356,405.5C 359.015,402.317 362.182,399.317 365.5,396.5C 369.985,400.485 374.318,404.651 378.5,409C 379.167,409.667 379.833,409.667 380.5,409C 392.702,396.965 404.702,384.798 416.5,372.5 Z"/></g>
</svg>
