<?xml version="1.0" encoding="UTF-8"?>
<!DOCTYPE svg PUBLIC "-//W3C//DTD SVG 1.1//EN" "http://www.w3.org/Graphics/SVG/1.1/DTD/svg11.dtd">
<svg xmlns="http://www.w3.org/2000/svg" version="1.1" width="500px" height="500px" style="shape-rendering:geometricPrecision; text-rendering:geometricPrecision; image-rendering:optimizeQuality; fill-rule:evenodd; clip-rule:evenodd" xmlns:xlink="http://www.w3.org/1999/xlink">
<g><path style="opacity:1" fill="#fefefe" d="M 428.5,351.5 C 405.548,336.891 381.882,335.724 357.5,348C 334.167,363.945 324.333,386.112 328,414.5C 329.663,422.151 332.163,429.484 335.5,436.5C 303.8,450.95 270.467,456.45 235.5,453C 156.957,442.337 101.79,400.837 70,328.5C 44.1996,255.758 54.5329,188.758 101,127.5C 151.135,70.5401 213.968,47.3734 289.5,58C 350.388,69.9311 396.554,102.431 428,155.5C 456.012,207.222 461.346,261.222 444,317.5C 440.07,329.483 434.903,340.816 428.5,351.5 Z"/></g>
<g><path style="opacity:1" fill="#5dc0d2" d="M 234.5,155.5 C 278.893,153.466 318.893,165.633 354.5,192C 377.581,209.746 398.747,229.579 418,251.5C 418.982,252.759 419.315,254.092 419,255.5C 396.139,287.701 367.639,313.535 333.5,333C 279.489,360.119 226.155,358.786 173.5,329C 141.389,309.235 113.222,284.735 89,255.5C 88.3333,254.5 88.3333,253.5 89,252.5C 115.637,214.854 149.804,186.354 191.5,167C 205.502,161.441 219.835,157.608 234.5,155.5 Z"/></g>
<g><path style="opacity:1" fill="#fdfefe" d="M 241.5,166.5 C 284.5,163.734 315.667,181.401 335,219.5C 347.587,253.978 342.254,285.311 319,313.5C 290.451,341.562 257.285,348.729 219.5,335C 190.869,321.694 173.369,299.528 167,268.5C 162.763,229.482 176.93,199.316 209.5,178C 219.787,172.631 230.453,168.797 241.5,166.5 Z"/></g>
<g><path style="opacity:1" fill="#033037" d="M 246.5,200.5 C 258.585,199.617 269.918,202.117 280.5,208C 270.465,218.727 271.465,228.394 283.5,237C 290.411,238.49 296.744,237.323 302.5,233.5C 308.97,247.005 309.137,260.672 303,274.5C 290.334,299.963 269.834,310.463 241.5,306C 218.01,299.178 204.51,283.678 201,259.5C 200.195,232.302 212.362,213.468 237.5,203C 240.678,202.34 243.678,201.507 246.5,200.5 Z"/></g>
<g><path style="opacity:1" fill="#e7af22" d="M 230.5,221.5 C 241.49,219.992 246.324,224.658 245,235.5C 240.672,242.696 234.838,244.196 227.5,240C 222.795,232.814 223.795,226.647 230.5,221.5 Z"/></g>
<g><path style="opacity:1" fill="#052f34" d="M 231.5,224.5 C 239.161,223.663 242.661,226.996 242,234.5C 237.777,240.552 233.111,240.885 228,235.5C 226.663,230.872 227.83,227.205 231.5,224.5 Z"/></g>
<g><path style="opacity:1" fill="#12b5db" d="M 261.5,236.5 C 257.969,233.791 257.636,230.624 260.5,227C 265.84,226.011 268.34,228.178 268,233.5C 266.491,235.919 264.325,236.919 261.5,236.5 Z"/></g>
<g><path style="opacity:1" fill="#01404b" d="M 261.5,229.5 C 264.166,229.066 265.333,230.066 265,232.5C 262.342,233.694 261.176,232.694 261.5,229.5 Z"/></g>
<g><path style="opacity:1" fill="#cfd8d9" d="M 261.5,236.5 C 261.536,239.821 260.869,242.988 259.5,246C 260.813,249.369 261.646,252.869 262,256.5C 264.127,258.114 265.627,260.114 266.5,262.5C 263.937,261.8 261.437,260.8 259,259.5C 256.865,260.127 254.698,260.627 252.5,261C 248.327,266.668 243.993,272.168 239.5,277.5C 238.432,275.813 238.599,274.146 240,272.5C 243.743,268.012 247.243,263.346 250.5,258.5C 250,257.119 249,256.453 247.5,256.5C 244.551,257.302 241.551,257.636 238.5,257.5C 238.5,256.833 238.5,256.167 238.5,255.5C 241.728,254.454 245.061,253.788 248.5,253.5C 248.33,252.178 248.663,251.011 249.5,250C 247.306,247.305 245.306,244.472 243.5,241.5C 244.365,240.417 245.365,240.251 246.5,241C 248.494,245.921 251.827,247.754 256.5,246.5C 257.022,243.432 257.855,240.432 259,237.5C 259.671,236.748 260.504,236.414 261.5,236.5 Z"/></g>
<g><path style="opacity:1" fill="#123a40" d="M 253.5,249.5 C 256.352,249.352 258.019,250.686 258.5,253.5C 256.167,258.833 253.833,258.833 251.5,253.5C 251.752,251.927 252.418,250.594 253.5,249.5 Z"/></g>
<g><path style="opacity:1" fill="#16b0d5" d="M 238.5,255.5 C 238.5,256.167 238.5,256.833 238.5,257.5C 237.072,260.091 234.905,261.758 232,262.5C 227.794,261.472 226.461,258.805 228,254.5C 229.313,253.427 230.813,252.76 232.5,252.5C 234.511,253.519 236.511,254.519 238.5,255.5 Z"/></g>
<g><path style="opacity:1" fill="#003a44" d="M 230.5,256.5 C 231.978,256.238 233.311,256.571 234.5,257.5C 233.68,259.111 232.346,259.778 230.5,259.5C 230.5,258.5 230.5,257.5 230.5,256.5 Z"/></g>
<g><path style="opacity:1" fill="#e3ad23" d="M 266.5,262.5 C 277.831,257.322 282.998,260.989 282,273.5C 277.951,278.977 273.118,279.81 267.5,276C 263.919,271.757 263.585,267.257 266.5,262.5 Z"/></g>
<g><path style="opacity:1" fill="#113334" d="M 271.5,262.5 C 278.314,262.49 280.814,265.823 279,272.5C 273.194,277.252 269.361,275.918 267.5,268.5C 268.432,266.235 269.765,264.235 271.5,262.5 Z"/></g>
<g><path style="opacity:1" fill="#11b3d8" d="M 233.5,276.5 C 239.572,277.712 240.905,280.878 237.5,286C 232.647,287.13 230.147,285.296 230,280.5C 230.69,278.65 231.856,277.316 233.5,276.5 Z"/></g>
<g><path style="opacity:1" fill="#002e36" d="M 233.5,280.5 C 234.5,280.5 235.5,280.5 236.5,280.5C 236.5,281.5 236.5,282.5 236.5,283.5C 235.5,283.5 234.5,283.5 233.5,283.5C 233.5,282.5 233.5,281.5 233.5,280.5 Z"/></g>
<g><path style="opacity:0.989" fill="#6be578" d="M 428.5,351.5 C 454.529,375.824 459.696,404.158 444,436.5C 425.102,463.802 399.602,472.635 367.5,463C 354.185,457.169 343.518,448.336 335.5,436.5C 332.163,429.484 329.663,422.151 328,414.5C 324.333,386.112 334.167,363.945 357.5,348C 381.882,335.724 405.548,336.891 428.5,351.5 Z"/></g>
<g><path style="opacity:1" fill="#fbfcfb" d="M 416.5,372.5 C 419.797,375.296 422.964,378.296 426,381.5C 426.667,382.5 426.667,383.5 426,384.5C 410.833,399.667 395.667,414.833 380.5,430C 379.5,430.667 378.5,430.667 377.5,430C 370.333,422.833 363.167,415.667 356,408.5C 355.333,407.5 355.333,406.5 356,405.5C 359.015,402.317 362.182,399.317 365.5,396.5C 369.985,400.485 374.318,404.651 378.5,409C 379.167,409.667 379.833,409.667 380.5,409C 392.702,396.965 404.702,384.798 416.5,372.5 Z"/></g>
</svg>
